M48
;GenerationSoftware,Autodesk,EAGLE,9.6.2*%
;CreationDate,2021-06-10T12:45:24Z*%
FMAT,2
ICI,OFF
METRIC,TZ,000.000
T3C0.300
T2C1.016
T1C3.302
%
G90
M71
T1
X152400Y2540
X100584Y28448
X2540Y22860
X22860Y22860
X22860Y2540
X2540Y2540
X28448Y22860
X48768Y22860
X48768Y2540
X28448Y2540
X54356Y22860
X74676Y22860
X74676Y2540
X54356Y2540
X80264Y22860
X100584Y22860
X100584Y2540
X80264Y2540
X106172Y22860
X126492Y22860
X126492Y2540
X106172Y2540
X132080Y22860
X152400Y22860
X132080Y28448
X132080Y2540
X2540Y48768
X22860Y48768
X22860Y28448
X2540Y28448
X28448Y48768
X48768Y48768
X48768Y28448
X28448Y28448
X54356Y48768
X74676Y48768
X74676Y28448
X54356Y28448
X80264Y48768
X100584Y48768
X80264Y28448
X106172Y48768
X126492Y48768
X126492Y28448
X106172Y28448
X132080Y48768
X152400Y48768
X152400Y28448
X132080Y80264
X2540Y74676
X22860Y74676
X22860Y54356
X2540Y54356
X28448Y74676
X48768Y74676
X48768Y54356
X28448Y54356
X54356Y74676
X74676Y74676
X74676Y54356
X54356Y54356
X80264Y74676
X100584Y74676
X100584Y54356
X80264Y54356
X106172Y74676
X126492Y74676
X126492Y54356
X106172Y54356
X132080Y74676
X152400Y74676
X152400Y54356
X132080Y54356
X2540Y100584
X22860Y100584
X22860Y80264
X2540Y80264
X28448Y100584
X48768Y100584
X48768Y80264
X28448Y80264
X54356Y100584
X74676Y100584
X74676Y80264
X54356Y80264
X80264Y100584
X100584Y100584
X100584Y80264
X80264Y80264
X106172Y100584
X126492Y100584
X126492Y80264
X106172Y80264
X132080Y100584
X152400Y100584
X152400Y80264
T2
X146050Y78994
X8890Y1270
X11430Y1270
X13970Y1270
X16510Y1270
X34798Y1270
X37338Y1270
X39878Y1270
X42418Y1270
X60706Y1270
X63246Y1270
X65786Y1270
X68326Y1270
X86614Y1270
X89154Y1270
X91694Y1270
X94234Y1270
X112522Y1270
X115062Y1270
X117602Y1270
X120142Y1270
X138430Y1270
X140970Y1270
X143510Y1270
X146050Y1270
X8890Y27178
X11430Y27178
X13970Y27178
X16510Y27178
X34798Y27178
X37338Y27178
X39878Y27178
X42418Y27178
X60706Y27178
X63246Y27178
X65786Y27178
X68326Y27178
X86614Y27178
X89154Y27178
X91694Y27178
X94234Y27178
X112522Y27178
X115062Y27178
X117602Y27178
X120142Y27178
X138430Y27178
X140970Y27178
X143510Y27178
X146050Y27178
X8890Y53086
X11430Y53086
X13970Y53086
X16510Y53086
X34798Y53086
X37338Y53086
X39878Y53086
X42418Y53086
X60706Y53086
X63246Y53086
X65786Y53086
X68326Y53086
X86614Y53086
X89154Y53086
X91694Y53086
X94234Y53086
X112522Y53086
X115062Y53086
X117602Y53086
X120142Y53086
X138430Y53086
X140970Y53086
X143510Y53086
X146050Y53086
X8890Y78994
X11430Y78994
X13970Y78994
X16510Y78994
X34798Y78994
X37338Y78994
X39878Y78994
X42418Y78994
X60706Y78994
X63246Y78994
X65786Y78994
X68326Y78994
X86614Y78994
X89154Y78994
X91694Y78994
X94234Y78994
X112522Y78994
X115062Y78994
X117602Y78994
X120142Y78994
X138430Y78994
X140970Y78994
X143510Y78994
T3
X112522Y10160
X120142Y11239
X118427Y11239
X116332Y3810
X118872Y3810
X121412Y3810
X113792Y3810
X114173Y12446
X114808Y13462
X122809Y14224
X114109Y20320
X125181Y14172
X118427Y15113
X114681Y20828
X122809Y13208
X109855Y12192
X109918Y6350
X126619Y17780
X122555Y17780
X114808Y14224
X114490Y10569
X114490Y9017
X114490Y7493
X148717Y12200
X135890Y8890
X140145Y16701
X144336Y16701
X143510Y21717
X140462Y19558
X141923Y18352
X148717Y11176
X135763Y14224
X131255Y8573
X151765Y11176
X144336Y18352
X134620Y20320
X149860Y20320
X147320Y15240
X137160Y15240
X130810Y12700
X153670Y12700
X134620Y5080
X149860Y5080
X138430Y10160
X146050Y11239
X144336Y11239
X142240Y3810
X144780Y3810
X147320Y3810
X139700Y3810
X140081Y12446
X140716Y13462
X148717Y14224
X140018Y20320
X151090Y14172
X144336Y15113
X140589Y20828
X148717Y13208
X135763Y12192
X135827Y6350
X152527Y17780
X148463Y17780
X140716Y14224
X140399Y10569
X140399Y9017
X140399Y7493
X19177Y38108
X6350Y34798
X10605Y42609
X14795Y42609
X13970Y47625
X10922Y45466
X12382Y44259
X19177Y37084
X6223Y40132
X1714Y34481
X22225Y37084
X14795Y44259
X5080Y46228
X20320Y46228
X17780Y41148
X7620Y41148
X1270Y38608
X24130Y38608
X5080Y30988
X20320Y30988
X8890Y36068
X16510Y37148
X14795Y37148
X12700Y29718
X15240Y29718
X17780Y29718
X10160Y29718
X10541Y38354
X11176Y39370
X19177Y40132
X10478Y46228
X21550Y40080
X14795Y41021
X11049Y46736
X19177Y39116
X6223Y38100
X6286Y32258
X22987Y43688
X18923Y43688
X11176Y40132
X10859Y36477
X10859Y34925
X10859Y33401
X45085Y38108
X32258Y34798
X36513Y42609
X40704Y42609
X39878Y47625
X36830Y45466
X38291Y44259
X45085Y37084
X32131Y40132
X27622Y34481
X48133Y37084
X40704Y44259
X30988Y46228
X46228Y46228
X43688Y41148
X33528Y41148
X27178Y38608
X50038Y38608
X30988Y30988
X46228Y30988
X34798Y36068
X42418Y37148
X40704Y37148
X38608Y29718
X41148Y29718
X43688Y29718
X36068Y29718
X36449Y38354
X37084Y39370
X45085Y40132
X36386Y46228
X47457Y40080
X40704Y41021
X36957Y46736
X45085Y39116
X32131Y38100
X32194Y32258
X48895Y43688
X44831Y43688
X37084Y40132
X36767Y36477
X36767Y34925
X36767Y33401
X70993Y38108
X58166Y34798
X62420Y42609
X66612Y42609
X65786Y47625
X62738Y45466
X64198Y44259
X70993Y37084
X58039Y40132
X53530Y34481
X74041Y37084
X66612Y44259
X56896Y46228
X72136Y46228
X69596Y41148
X59436Y41148
X53086Y38608
X75946Y38608
X56896Y30988
X72136Y30988
X60706Y36068
X68326Y37148
X66612Y37148
X64516Y29718
X67056Y29718
X69596Y29718
X61976Y29718
X62357Y38354
X62992Y39370
X70993Y40132
X62293Y46228
X73366Y40080
X66612Y41021
X62865Y46736
X70993Y39116
X58039Y38100
X58102Y32258
X74803Y43688
X70739Y43688
X62992Y40132
X62674Y36477
X62674Y34925
X62674Y33401
X96901Y38108
X84074Y34798
X88328Y42609
X92519Y42609
X91694Y47625
X88646Y45466
X90106Y44259
X96901Y37084
X83947Y40132
X79439Y34481
X99949Y37084
X92519Y44259
X82804Y46228
X98044Y46228
X95504Y41148
X85344Y41148
X78994Y38608
X101854Y38608
X82804Y30988
X98044Y30988
X86614Y36068
X94234Y37148
X92519Y37148
X90424Y29718
X92964Y29718
X95504Y29718
X87884Y29718
X88265Y38354
X88900Y39370
X96901Y40132
X88201Y46228
X99273Y40080
X92519Y41021
X88773Y46736
X96901Y39116
X83947Y38100
X84011Y32258
X100711Y43688
X96647Y43688
X88900Y40132
X88582Y36477
X88582Y34925
X88582Y33401
X122809Y38108
X109982Y34798
X114236Y42609
X118427Y42609
X117602Y47625
X114554Y45466
X116014Y44259
X122809Y37084
X109855Y40132
X105346Y34481
X125857Y37084
X118427Y44259
X108712Y46228
X123952Y46228
X121412Y41148
X111252Y41148
X104902Y38608
X127762Y38608
X108712Y30988
X123952Y30988
X112522Y36068
X120142Y37148
X118427Y37148
X116332Y29718
X118872Y29718
X121412Y29718
X113792Y29718
X114173Y38354
X114808Y39370
X122809Y40132
X114109Y46228
X125181Y40080
X118427Y41021
X114681Y46736
X122809Y39116
X109855Y38100
X109918Y32258
X126619Y43688
X122555Y43688
X114808Y40132
X114490Y36477
X114490Y34925
X114490Y33401
X148717Y38108
X135890Y34798
X140145Y42609
X144336Y42609
X143510Y47625
X140462Y45466
X141923Y44259
X148717Y37084
X135763Y40132
X131255Y34481
X151765Y37084
X144336Y44259
X134620Y46228
X149860Y46228
X147320Y41148
X137160Y41148
X130810Y38608
X153670Y38608
X134620Y30988
X149860Y30988
X138430Y36068
X146050Y37148
X144336Y37148
X142240Y29718
X144780Y29718
X147320Y29718
X139700Y29718
X140081Y38354
X140716Y39370
X148717Y40132
X140018Y46228
X151090Y40080
X144336Y41021
X140589Y46736
X148717Y39116
X135763Y38100
X135827Y32258
X152527Y43688
X148463Y43688
X140716Y40132
X140399Y36477
X140399Y34925
X140399Y33401
X19177Y64016
X6350Y60706
X10605Y68517
X14795Y68517
X13970Y73533
X10922Y71374
X12382Y70168
X19177Y62992
X6223Y66040
X1714Y60388
X22225Y62992
X14795Y70168
X5080Y72136
X20320Y72136
X17780Y67056
X7620Y67056
X1270Y64516
X24130Y64516
X5080Y56896
X20320Y56896
X8890Y61976
X16510Y63055
X14795Y63055
X12700Y55626
X15240Y55626
X17780Y55626
X10160Y55626
X10541Y64262
X11176Y65278
X19177Y66040
X10478Y72136
X21550Y65988
X14795Y66929
X11049Y72644
X19177Y65024
X6223Y64008
X6286Y58166
X22987Y69596
X18923Y69596
X11176Y66040
X10859Y62385
X10859Y60833
X10859Y59309
X45085Y64016
X32258Y60706
X36513Y68517
X40704Y68517
X39878Y73533
X36830Y71374
X38291Y70168
X45085Y62992
X32131Y66040
X27622Y60388
X48133Y62992
X40704Y70168
X30988Y72136
X46228Y72136
X43688Y67056
X33528Y67056
X27178Y64516
X50038Y64516
X30988Y56896
X46228Y56896
X34798Y61976
X42418Y63055
X40704Y63055
X38608Y55626
X41148Y55626
X43688Y55626
X36068Y55626
X36449Y64262
X37084Y65278
X45085Y66040
X36386Y72136
X47457Y65988
X40704Y66929
X36957Y72644
X45085Y65024
X32131Y64008
X32194Y58166
X48895Y69596
X44831Y69596
X37084Y66040
X36767Y62385
X36767Y60833
X36767Y59309
X70993Y64016
X58166Y60706
X62420Y68517
X66612Y68517
X65786Y73533
X62738Y71374
X64198Y70168
X70993Y62992
X58039Y66040
X53530Y60388
X92964Y3810
X66612Y70168
X56896Y72136
X72136Y72136
X69596Y67056
X59436Y67056
X53086Y64516
X75946Y64516
X56896Y56896
X72136Y56896
X60706Y61976
X68326Y63055
X66612Y63055
X64516Y55626
X67056Y55626
X69596Y55626
X61976Y55626
X62357Y64262
X62992Y65278
X70993Y66040
X62293Y72136
X73366Y65988
X66612Y66929
X62865Y72644
X70993Y65024
X58039Y64008
X58102Y58166
X74803Y69596
X70739Y69596
X62992Y66040
X62674Y62385
X62674Y60833
X62674Y59309
X96901Y64016
X84074Y60706
X88328Y68517
X92519Y68517
X91694Y73533
X88646Y71374
X90106Y70168
X96901Y62992
X83947Y66040
X79439Y60388
X99949Y62992
X92519Y70168
X82804Y72136
X98044Y72136
X95504Y67056
X85344Y67056
X78994Y64516
X101854Y64516
X82804Y56896
X98044Y56896
X86614Y61976
X94234Y63055
X92519Y63055
X90424Y55626
X92964Y55626
X95504Y55626
X87884Y55626
X88265Y64262
X88900Y65278
X96901Y66040
X88201Y72136
X99273Y65988
X92519Y66929
X88773Y72644
X96901Y65024
X83947Y64008
X84011Y58166
X100711Y69596
X96647Y69596
X88900Y66040
X88582Y62385
X88582Y60833
X88582Y59309
X122809Y64016
X109982Y60706
X114236Y68517
X118427Y68517
X117602Y73533
X114554Y71374
X116014Y70168
X122809Y62992
X109855Y66040
X105346Y60388
X125857Y62992
X118427Y70168
X108712Y72136
X123952Y72136
X121412Y67056
X111252Y67056
X104902Y64516
X127762Y64516
X108712Y56896
X123952Y56896
X112522Y61976
X120142Y63055
X118427Y63055
X116332Y55626
X118872Y55626
X121412Y55626
X113792Y55626
X114173Y64262
X114808Y65278
X122809Y66040
X114109Y72136
X125181Y65988
X118427Y66929
X114681Y72644
X122809Y65024
X109855Y64008
X109918Y58166
X126619Y69596
X122555Y69596
X114808Y66040
X114490Y62385
X114490Y60833
X114490Y59309
X148717Y64016
X135890Y60706
X140145Y68517
X144336Y68517
X143510Y73533
X140462Y71374
X141923Y70168
X148717Y62992
X135763Y66040
X131255Y60388
X151765Y62992
X144336Y70168
X134620Y72136
X149860Y72136
X147320Y67056
X137160Y67056
X130810Y64516
X153670Y64516
X134620Y56896
X149860Y56896
X138430Y61976
X146050Y63055
X144336Y63055
X142240Y55626
X144780Y55626
X147320Y55626
X139700Y55626
X140081Y64262
X140716Y65278
X148717Y66040
X140018Y72136
X151090Y65988
X144336Y66929
X140589Y72644
X148717Y65024
X135763Y64008
X135827Y58166
X152527Y69596
X148463Y69596
X140716Y66040
X140399Y62385
X140399Y60833
X140399Y59309
X19177Y89924
X6350Y86614
X10605Y94424
X14795Y94424
X13970Y99441
X10922Y97282
X12382Y96075
X19177Y88900
X6223Y91948
X1714Y86297
X22225Y88900
X14795Y96075
X5080Y98044
X20320Y98044
X17780Y92964
X7620Y92964
X1270Y90424
X24130Y90424
X5080Y82804
X20320Y82804
X8890Y87884
X16510Y88963
X14795Y88963
X12700Y81534
X15240Y81534
X17780Y81534
X10160Y81534
X10541Y90170
X11176Y91186
X19177Y91948
X10478Y98044
X21550Y91896
X14795Y92837
X11049Y98552
X19177Y90932
X6223Y89916
X6286Y84074
X22987Y95504
X18923Y95504
X11176Y91948
X10859Y88293
X10859Y86741
X10859Y85217
X45085Y89924
X32258Y86614
X36513Y94424
X40704Y94424
X39878Y99441
X36830Y97282
X38291Y96075
X45085Y88900
X32131Y91948
X27622Y86297
X48133Y88900
X40704Y96075
X30988Y98044
X46228Y98044
X43688Y92964
X33528Y92964
X27178Y90424
X50038Y90424
X30988Y82804
X46228Y82804
X34798Y87884
X42418Y88963
X40704Y88963
X38608Y81534
X41148Y81534
X43688Y81534
X36068Y81534
X36449Y90170
X37084Y91186
X45085Y91948
X36386Y98044
X47457Y91896
X40704Y92837
X36957Y98552
X45085Y90932
X32131Y89916
X32194Y84074
X48895Y95504
X44831Y95504
X37084Y91948
X36767Y88293
X36767Y86741
X36767Y85217
X70993Y89924
X58166Y86614
X62420Y94424
X66612Y94424
X65786Y99441
X62738Y97282
X64198Y96075
X70993Y88900
X58039Y91948
X53530Y86297
X74041Y88900
X66612Y96075
X56896Y98044
X72136Y98044
X69596Y92964
X59436Y92964
X53086Y90424
X75946Y90424
X56896Y82804
X72136Y82804
X60706Y87884
X68326Y88963
X66612Y88963
X64516Y81534
X67056Y81534
X69596Y81534
X61976Y81534
X62357Y90170
X62992Y91186
X70993Y91948
X62293Y98044
X73366Y91896
X66612Y92837
X62865Y98552
X70993Y90932
X58039Y89916
X58102Y84074
X74803Y95504
X70739Y95504
X62992Y91948
X62674Y88293
X62674Y86741
X62674Y85217
X96901Y89924
X84074Y86614
X88328Y94424
X92519Y94424
X91694Y99441
X88646Y97282
X90106Y96075
X96901Y88900
X83947Y91948
X79439Y86297
X99949Y88900
X92519Y96075
X82804Y98044
X98044Y98044
X19177Y12200
X85344Y92964
X78994Y90424
X101854Y90424
X82804Y82804
X98044Y82804
X86614Y87884
X94234Y88963
X92519Y88963
X90424Y81534
X92964Y81534
X95504Y81534
X87884Y81534
X88265Y90170
X88900Y91186
X96901Y91948
X88201Y98044
X99273Y91896
X92519Y92837
X88773Y98552
X96901Y90932
X83947Y89916
X84011Y84074
X100711Y95504
X96647Y95504
X88900Y91948
X88582Y88293
X88582Y86741
X88582Y85217
X122809Y89924
X109982Y86614
X114236Y94424
X118427Y94424
X117602Y99441
X114554Y97282
X116014Y96075
X122809Y88900
X109855Y91948
X105346Y86297
X125857Y88900
X118427Y96075
X108712Y98044
X123952Y98044
X121412Y92964
X111252Y92964
X104902Y90424
X127762Y90424
X108712Y82804
X123952Y82804
X112522Y87884
X120142Y88963
X118427Y88963
X116332Y81534
X118872Y81534
X121412Y81534
X113792Y81534
X114173Y90170
X114808Y91186
X122809Y91948
X114109Y98044
X125181Y91896
X118427Y92837
X114681Y98552
X122809Y90932
X109855Y89916
X109918Y84074
X126619Y95504
X122555Y95504
X114808Y91948
X114490Y88293
X114490Y86741
X114490Y85217
X148717Y89924
X135890Y86614
X140145Y94424
X144336Y94424
X143510Y99441
X140462Y97282
X141923Y96075
X148717Y88900
X135763Y91948
X131255Y86297
X151765Y88900
X144336Y96075
X134620Y98044
X149860Y98044
X147320Y92964
X137160Y92964
X130810Y90424
X153670Y90424
X134620Y82804
X149860Y82804
X138430Y87884
X146050Y88963
X144336Y88963
X142240Y81534
X144780Y81534
X147320Y81534
X139700Y81534
X140081Y90170
X140716Y91186
X148717Y91948
X140018Y98044
X151090Y91896
X144336Y92837
X140589Y98552
X148717Y90932
X135763Y89916
X135827Y84074
X152527Y95504
X148463Y95504
X140716Y91948
X140399Y88293
X140399Y86741
X140399Y85217
X6350Y8890
X10605Y16701
X14795Y16701
X13970Y21717
X10922Y19558
X12382Y18352
X19177Y11176
X6223Y14224
X1714Y8573
X22225Y11176
X14795Y18352
X5080Y20320
X20320Y20320
X17780Y15240
X7620Y15240
X1270Y12700
X24130Y12700
X5080Y5080
X20320Y5080
X8890Y10160
X16510Y11239
X14795Y11239
X12700Y3810
X15240Y3810
X17780Y3810
X10160Y3810
X10541Y12446
X11176Y13462
X19177Y14224
X10478Y20320
X21550Y14172
X14795Y15113
X11049Y20828
X19177Y13208
X6223Y12192
X6286Y6350
X22987Y17780
X18923Y17780
X74041Y62992
X11176Y14224
X10859Y10569
X10859Y9017
X10859Y7493
X45085Y12200
X32258Y8890
X36513Y16701
X40704Y16701
X39878Y21717
X36830Y19558
X38291Y18352
X45085Y11176
X32131Y14224
X27622Y8573
X48133Y11176
X40704Y18352
X30988Y20320
X46228Y20320
X43688Y15240
X33528Y15240
X27178Y12700
X50038Y12700
X30988Y5080
X46228Y5080
X34798Y10160
X42418Y11239
X40704Y11239
X38608Y3810
X41148Y3810
X43688Y3810
X36068Y3810
X36449Y12446
X37084Y13462
X45085Y14224
X36386Y20320
X47457Y14172
X40704Y15113
X36957Y20828
X45085Y13208
X32131Y12192
X32194Y6350
X48895Y17780
X44831Y17780
X37084Y14224
X36767Y10569
X36767Y9017
X36767Y7493
X70993Y12200
X58166Y8890
X62420Y16701
X66612Y16701
X65786Y21717
X62738Y19558
X64198Y18352
X70993Y11176
X58039Y14224
X53530Y8573
X74041Y11176
X66612Y18352
X56896Y20320
X72136Y20320
X69596Y15240
X59436Y15240
X53086Y12700
X75946Y12700
X56896Y5080
X72136Y5080
X60706Y10160
X68326Y11239
X66612Y11239
X64516Y3810
X67056Y3810
X69596Y3810
X61976Y3810
X62357Y12446
X62992Y13462
X70993Y14224
X62293Y20320
X73366Y14172
X66612Y15113
X62865Y20828
X70993Y13208
X58039Y12192
X58102Y6350
X74803Y17780
X70739Y17780
X62992Y14224
X62674Y10569
X62674Y9017
X62674Y7493
X96901Y12200
X84074Y8890
X88328Y16701
X92519Y16701
X91694Y21717
X88646Y19558
X90106Y18352
X96901Y11176
X83947Y14224
X79439Y8573
X99949Y11176
X92519Y18352
X82804Y20320
X98044Y20320
X95504Y15240
X85344Y15240
X78994Y12700
X101854Y12700
X82804Y5080
X98044Y5080
X86614Y10160
X94234Y11239
X92519Y11239
X90424Y3810
X95504Y3810
X87884Y3810
X88265Y12446
X88900Y13462
X96901Y14224
X88201Y20320
X99273Y14172
X92519Y15113
X88773Y20828
X96901Y13208
X83947Y12192
X84011Y6350
X100711Y17780
X96647Y17780
X88900Y14224
X88582Y10569
X88582Y9017
X88582Y7493
X122809Y12200
X109982Y8890
X114236Y16701
X118427Y16701
X117602Y21717
X114554Y19558
X116014Y18352
X122809Y11176
X109855Y14224
X105346Y8573
X125857Y11176
X118427Y18352
X108712Y20320
X123952Y20320
X121412Y15240
X111252Y15240
X104902Y12700
X127762Y12700
X108712Y5080
X123952Y5080
X95504Y92964
M30